<svg width="841" height="145" viewBox="0 0 841 145" fill="none" xmlns="http://www.w3.org/2000/svg">
<path fill-rule="evenodd" clip-rule="evenodd" d="M181.259 89.2013C185.567 92.6583 186.256 98.9524 182.799 103.259C171.63 117.174 139.421 145 98 145C77.1294 145 58.5897 137.906 44.0978 129.365C29.6495 120.85 18.6689 110.575 12.7513 103.321L28.2486 90.6787C32.6644 96.0916 41.8338 104.816 54.2522 112.135C66.6269 119.428 81.6706 125 98 125C130.979 125 158.037 102.159 167.201 90.7405C170.658 86.4335 176.952 85.7443 181.259 89.2013Z" fill="#FF8343"/>
<path fill-rule="evenodd" clip-rule="evenodd" d="M37.0711 79.9289C40.9763 83.8342 40.9763 90.1658 37.0711 94.0711L17.0711 114.071C13.1658 117.976 6.83418 117.976 2.92893 114.071C-0.976311 110.166 -0.976311 103.834 2.92893 99.9289L22.9289 79.9289C26.8342 76.0237 33.1658 76.0237 37.0711 79.9289Z" fill="#FF8343"/>
<path fill-rule="evenodd" clip-rule="evenodd" d="M192.071 114.071C188.166 117.976 181.834 117.976 177.929 114.071L157.929 94.0711C154.024 90.1658 154.024 83.8342 157.929 79.9289C161.834 76.0237 168.166 76.0237 172.071 79.9289L192.071 99.9289C195.976 103.834 195.976 110.166 192.071 114.071Z" fill="#FF8343"/>
<path fill-rule="evenodd" clip-rule="evenodd" d="M42.5596 27.6321C40.2121 33.4225 39.7118 40.9785 40.1345 46.1918C40.5808 51.6966 36.4801 56.521 30.9754 56.9673C25.4706 57.4136 20.6462 53.3129 20.1999 47.8082C19.6226 40.6882 20.1223 29.7442 24.0248 20.1179C26.0127 15.2146 29.0853 10.16 33.8392 6.29096C38.7513 2.29318 44.9335 0 52.1672 0C67.5076 0 76.2961 9.96286 80.5958 19.9059C84.7375 29.4837 85.5383 40.4048 85.1526 47.5398C84.8545 53.0546 80.1423 57.2835 74.6275 56.9854C69.1127 56.6873 64.8837 51.975 65.1818 46.4602C65.4628 41.2618 64.7636 33.683 62.2386 27.8441C59.8717 22.3705 56.8268 20 52.1672 20C49.4009 20 47.7082 20.7901 46.4639 21.8028C45.0616 22.9441 43.6967 24.8271 42.5596 27.6321Z" fill="#FF8343"/>
<path fill-rule="evenodd" clip-rule="evenodd" d="M174.854 18.301C175.794 23.7435 172.143 28.9168 166.701 29.856C164.746 30.1933 162.332 30.7793 159.666 31.6696C164.376 33.4371 168.898 36.2268 172.56 40.4557C176.175 44.6309 175.721 50.9463 171.546 54.5615C167.371 58.1767 161.055 57.7227 157.44 53.5475C155.322 51.1014 151.331 49.3375 145.643 49.0342C140.011 48.7338 134.516 49.9991 131.387 51.5269C127.22 53.5617 122.2 52.464 119.262 48.8753C116.324 45.2866 116.239 40.1489 119.057 36.4652C132.633 18.7168 152.817 11.9563 163.299 10.1473C168.742 9.20808 173.915 12.8586 174.854 18.301Z" fill="#FF8343"/>
<path d="M815.25 43.84V58.4C815.25 60.09 815.77 60.74 817.59 60.74H833.71C837.48 60.74 838.52 61.78 838.52 65.55V74.13C838.52 77.9 837.48 78.94 833.97 78.94H817.59C815.77 78.94 815.25 79.46 815.25 81.28V100.26C815.25 101.95 815.77 102.6 817.59 102.6H835.27C839.04 102.6 840.08 103.64 840.08 107.41V115.99C840.08 119.76 839.04 120.8 835.27 120.8H802.12C798.35 120.8 797.31 119.76 797.31 115.99V28.11C797.31 24.34 798.35 23.3 802.12 23.3H835.27C839.04 23.3 840.08 24.34 840.08 28.11V36.69C840.08 40.46 839.04 41.5 835.27 41.5H817.59C815.77 41.5 815.25 42.02 815.25 43.84Z" fill="#FF8343"/>
<path d="M764.215 43.84V58.4C764.215 60.09 764.735 60.74 766.555 60.74H782.675C786.445 60.74 787.485 61.78 787.485 65.55V74.13C787.485 77.9 786.445 78.94 782.935 78.94H766.555C764.735 78.94 764.215 79.46 764.215 81.28V100.26C764.215 101.95 764.735 102.6 766.555 102.6H784.235C788.005 102.6 789.045 103.64 789.045 107.41V115.99C789.045 119.76 788.005 120.8 784.235 120.8H751.085C747.315 120.8 746.275 119.76 746.275 115.99V28.11C746.275 24.34 747.315 23.3 751.085 23.3H784.235C788.005 23.3 789.045 24.34 789.045 28.11V36.69C789.045 40.46 788.005 41.5 784.235 41.5H766.555C764.735 41.5 764.215 42.02 764.215 43.84Z" fill="#FF8343"/>
<path d="M715.592 83.62V115.99C715.592 119.76 714.552 120.8 710.782 120.8H702.462C698.692 120.8 697.652 119.76 697.652 115.99V28.11C697.652 24.34 698.692 23.3 702.462 23.3H737.432C741.202 23.3 742.242 24.34 742.242 28.11V36.69C742.242 40.46 741.202 41.5 737.432 41.5H717.932C716.112 41.5 715.592 42.02 715.592 43.84V60.74C715.592 62.43 716.112 63.08 717.932 63.08H731.972C735.742 63.08 736.782 64.12 736.782 67.89V76.47C736.782 80.24 735.742 81.28 732.232 81.28H717.932C716.112 81.28 715.592 81.8 715.592 83.62Z" fill="#FF8343"/>
<path d="M666.969 83.62V115.99C666.969 119.76 665.929 120.8 662.159 120.8H653.839C650.069 120.8 649.029 119.76 649.029 115.99V28.11C649.029 24.34 650.069 23.3 653.839 23.3H688.809C692.579 23.3 693.619 24.34 693.619 28.11V36.69C693.619 40.46 692.579 41.5 688.809 41.5H669.309C667.489 41.5 666.969 42.02 666.969 43.84V60.74C666.969 62.43 667.489 63.08 669.309 63.08H683.349C687.119 63.08 688.159 64.12 688.159 67.89V76.47C688.159 80.24 687.119 81.28 683.609 81.28H669.309C667.489 81.28 666.969 81.8 666.969 83.62Z" fill="#FF8343"/>
<path d="M638.495 92.2C638.495 114.17 632.255 122.1 613.405 122.1C594.555 122.1 588.315 114.17 588.315 92.2V51.9C588.315 30.06 594.555 22 613.405 22C632.255 22 638.495 30.06 638.495 51.9V92.2ZM606.775 96.62C606.775 101.82 608.855 103.9 613.405 103.9C617.955 103.9 620.035 101.82 620.035 96.62V48.13C620.035 42.41 617.955 40.2 613.405 40.2C608.855 40.2 606.775 42.41 606.775 48.13V96.62Z" fill="#FF8343"/>
<path d="M581.106 89.6V93.5C581.106 114.43 575.126 122.1 556.276 122.1C537.426 122.1 531.186 114.43 531.186 93.5V50.6C531.186 29.67 537.426 22 556.276 22C575.126 22 581.106 29.67 581.106 50.6V54.5C581.106 58.27 580.066 59.31 576.296 59.31H567.976C564.206 59.31 563.166 58.27 563.166 54.5V47.48C563.166 42.28 560.956 40.2 556.406 40.2C551.856 40.2 549.646 42.28 549.646 47.48V96.62C549.646 101.82 551.856 103.9 556.406 103.9C560.956 103.9 563.166 101.82 563.166 96.62V89.6C563.166 85.83 564.206 84.79 567.976 84.79H576.296C580.066 84.79 581.106 85.83 581.106 89.6Z" fill="#FF8343"/>
<path d="M477.936 43.84V58.4C477.936 60.09 478.456 60.74 480.276 60.74H496.396C500.166 60.74 501.206 61.78 501.206 65.55V74.13C501.206 77.9 500.166 78.94 496.656 78.94H480.276C478.456 78.94 477.936 79.46 477.936 81.28V100.26C477.936 101.95 478.456 102.6 480.276 102.6H497.956C501.726 102.6 502.766 103.64 502.766 107.41V115.99C502.766 119.76 501.726 120.8 497.956 120.8H464.806C461.036 120.8 459.996 119.76 459.996 115.99V28.11C459.996 24.34 461.036 23.3 464.806 23.3H497.956C501.726 23.3 502.766 24.34 502.766 28.11V36.69C502.766 40.46 501.726 41.5 497.956 41.5H480.276C478.456 41.5 477.936 42.02 477.936 43.84Z" fill="#FF8343"/>
<path d="M432.613 100.52C432.613 102.08 433.133 102.6 434.953 102.6H451.203C454.973 102.6 456.013 103.64 456.013 107.41V115.99C456.013 119.76 454.973 120.8 451.203 120.8H419.483C415.713 120.8 414.673 119.76 414.673 115.99V28.11C414.673 24.34 415.713 23.3 419.483 23.3H427.803C431.573 23.3 432.613 24.34 432.613 28.11V100.52Z" fill="#FF8343"/>
<path d="M402.906 28.11V115.99C402.906 119.76 401.866 120.8 398.096 120.8H389.776C386.006 120.8 384.966 119.76 384.966 115.99V28.11C384.966 24.34 386.006 23.3 389.776 23.3H398.096C401.866 23.3 402.906 24.34 402.906 28.11Z" fill="#FF8343"/>
<path d="M336.999 81.02C337.259 82.06 337.649 82.32 338.299 82.32C338.949 82.32 339.339 82.06 339.599 81.02L350.779 26.68C351.299 23.95 352.469 23.3 355.719 23.3H368.329C372.099 23.3 373.139 24.34 373.139 28.11V115.99C373.139 119.76 372.099 120.8 368.329 120.8H362.349C358.579 120.8 357.539 119.76 357.539 115.99V73.87C357.539 72.7 357.279 72.44 356.499 72.44C355.979 72.44 355.459 72.7 355.329 73.61L346.099 116.51C345.449 119.63 344.019 120.8 340.249 120.8H336.739C332.839 120.8 331.409 119.63 330.759 116.51L321.399 73.61C321.139 72.7 320.879 72.44 320.229 72.44C319.449 72.44 319.189 72.7 319.189 73.87V115.99C319.189 119.76 318.149 120.8 314.379 120.8H308.399C304.629 120.8 303.589 119.76 303.589 115.99V28.11C303.589 24.34 304.629 23.3 308.399 23.3H319.189C323.739 23.3 325.429 24.34 326.339 28.89L336.999 81.02Z" fill="#FF8343"/>
<path d="M267.88 58.01L284.52 73.09C293.23 80.89 295.18 85.57 295.18 94.28V96.62C295.18 113 288.94 122.1 270.09 122.1C251.24 122.1 245 114.43 245 93.5V90.9C245 87.13 246.04 86.09 249.81 86.09H258.65C262.42 86.09 263.46 87.13 263.46 90.9V96.62C263.46 101.82 265.54 103.9 270.09 103.9C274.64 103.9 276.72 101.95 276.72 97.27V94.8C276.72 91.16 275.94 89.34 271.13 85.05L255.53 71.14C246.82 63.47 245 59.05 245 50.34V47.48C245 31.1 251.24 22 270.09 22C288.94 22 295.18 29.67 295.18 50.6V53.2C295.18 56.97 294.14 58.01 290.37 58.01H281.53C277.76 58.01 276.72 56.97 276.72 53.2V47.48C276.72 42.28 274.64 40.2 270.09 40.2C265.54 40.2 263.46 42.15 263.46 46.83V49.04C263.46 52.81 264.24 54.63 267.88 58.01Z" fill="#FF8343"/>
</svg>
