<svg width="195" height="145" viewBox="0 0 195 145" fill="none" xmlns="http://www.w3.org/2000/svg">
<path fill-rule="evenodd" clip-rule="evenodd" d="M181.259 89.2013C185.567 92.6583 186.256 98.9524 182.799 103.259C171.63 117.174 139.421 145 98 145C77.1294 145 58.5897 137.906 44.0978 129.365C29.6495 120.85 18.6689 110.575 12.7513 103.321L28.2486 90.6787C32.6644 96.0916 41.8338 104.816 54.2522 112.135C66.6269 119.428 81.6706 125 98 125C130.979 125 158.037 102.159 167.201 90.7405C170.658 86.4335 176.952 85.7443 181.259 89.2013Z" fill="#25231E"/>
<path fill-rule="evenodd" clip-rule="evenodd" d="M37.0711 79.9289C40.9763 83.8342 40.9763 90.1658 37.0711 94.0711L17.0711 114.071C13.1658 117.976 6.83418 117.976 2.92893 114.071C-0.976311 110.166 -0.976311 103.834 2.92893 99.9289L22.9289 79.9289C26.8342 76.0237 33.1658 76.0237 37.0711 79.9289Z" fill="#25231E"/>
<path fill-rule="evenodd" clip-rule="evenodd" d="M192.071 114.071C188.166 117.976 181.834 117.976 177.929 114.071L157.929 94.0711C154.024 90.1658 154.024 83.8342 157.929 79.9289C161.834 76.0237 168.166 76.0237 172.071 79.9289L192.071 99.9289C195.976 103.834 195.976 110.166 192.071 114.071Z" fill="#25231E"/>
<path fill-rule="evenodd" clip-rule="evenodd" d="M42.5596 27.6321C40.2121 33.4225 39.7118 40.9785 40.1345 46.1918C40.5808 51.6966 36.4801 56.521 30.9754 56.9673C25.4706 57.4136 20.6462 53.3129 20.1999 47.8082C19.6226 40.6882 20.1223 29.7442 24.0248 20.1179C26.0127 15.2146 29.0853 10.16 33.8392 6.29096C38.7513 2.29318 44.9335 0 52.1672 0C67.5076 0 76.2961 9.96286 80.5958 19.9059C84.7375 29.4837 85.5383 40.4048 85.1526 47.5398C84.8545 53.0546 80.1423 57.2835 74.6275 56.9854C69.1127 56.6873 64.8837 51.975 65.1818 46.4602C65.4628 41.2618 64.7636 33.683 62.2386 27.8441C59.8717 22.3705 56.8268 20 52.1672 20C49.4009 20 47.7082 20.7901 46.4639 21.8028C45.0616 22.9441 43.6967 24.8271 42.5596 27.6321Z" fill="#25231E"/>
<path fill-rule="evenodd" clip-rule="evenodd" d="M174.854 18.301C175.794 23.7435 172.143 28.9168 166.701 29.856C164.746 30.1933 162.332 30.7793 159.666 31.6696C164.376 33.4371 168.898 36.2268 172.56 40.4557C176.175 44.6309 175.721 50.9463 171.546 54.5615C167.371 58.1767 161.055 57.7227 157.44 53.5475C155.322 51.1014 151.331 49.3375 145.643 49.0342C140.011 48.7338 134.516 49.9991 131.387 51.5269C127.22 53.5617 122.2 52.464 119.262 48.8753C116.324 45.2866 116.239 40.1489 119.057 36.4652C132.633 18.7168 152.817 11.9563 163.299 10.1473C168.742 9.20808 173.915 12.8586 174.854 18.301Z" fill="#25231E"/>
</svg>
